<svg width="1200" height="800" viewBox="0 0 1200 800" fill="none" xmlns="http://www.w3.org/2000/svg">
  <rect width="1200" height="800" rx="36" fill="#FFFFFF" />
  <rect x="40" y="40" width="1120" height="720" rx="28" fill="#FFF6F9" />
  <rect x="80" y="80" width="1040" height="260" rx="24" fill="#F4C2C2" fill-opacity="0.25" />
  <rect x="120" y="120" width="420" height="40" rx="12" fill="#E8A9B8" fill-opacity="0.8" />
  <text x="140" y="149" font-family="Inter, Arial, sans-serif" font-size="28" font-weight="600" fill="#2B2B2B">Hero Headline Goes Here</text>
  <rect x="120" y="180" width="360" height="28" rx="10" fill="#2B2B2B" fill-opacity="0.12" />
  <text x="140" y="202" font-family="Inter, Arial, sans-serif" font-size="18" fill="#2B2B2B" fill-opacity="0.72">Supporting subheadline that builds trust.</text>
  <rect x="120" y="220" width  ="300" height="20" rx="10" fill="#2B2B2B" fill-opacity="0.08" />
  <rect x="120" y="256" width="260" height="20" rx="10" fill="#2B2B2B" fill-opacity="0.06" />
  <rect x="600" y="120" width="360" height="200" rx="20" fill="#FFFFFF" stroke="#E8A9B8" stroke-opacity="0.4" stroke-width="3" />
  <rect x="640" y="152" width="280" height="32" rx="12" fill="#E8A9B8" fill-opacity="0.2" />
  <text x="660" y="173" font-family="Inter, Arial, sans-serif" font-size="18" font-weight="600" fill="#2B2B2B">Primary Call-To-Action</text>
  <rect x="640" y="204" width="220" height="18" rx="9" fill="#2B2B2B" fill-opacity="0.08" />
  <rect x="640" y="236" width="180" height="18" rx="9" fill="#2B2B2B" fill-opacity="0.06" />
  <rect x="640" y="268" width="140" height="18" rx="9" fill="#2B2B2B" fill-opacity="0.06" />
  <text x="660" y="226" font-family="Inter, Arial, sans-serif" font-size="14" fill="#2B2B2B" fill-opacity="0.65">Quick proof points + reassurance statement</text>
  <rect x="120" y="320" width="960" height="120" rx="24" fill="#FFFFFF" stroke="#E8A9B8" stroke-opacity="0.35" stroke-width="2" />
  <rect x="160" y="352" width="120" height="12" rx="6" fill="#E8A9B8" fill-opacity="0.8" />
  <text x="160" y="372" font-family="Inter, Arial, sans-serif" font-size="14" font-weight="600" fill="#2B2B2B">Feature #1 Title</text>
  <rect x="160" y="380" width="180" height="10" rx="5" fill="#2B2B2B" fill-opacity="0.1" />
  <rect x="160" y="402" width="220" height="10" rx="5" fill="#2B2B2B" fill-opacity="0.08" />
  <text x="160" y="396" font-family="Inter, Arial, sans-serif" font-size="12" fill="#2B2B2B" fill-opacity="0.6">Short benefit statement.</text>
  <rect x="440" y="352" width="120" height="12" rx="6" fill="#E8A9B8" fill-opacity="0.8" />
  <text x="440" y="372" font-family="Inter, Arial, sans-serif" font-size="14" font-weight="600" fill="#2B2B2B">Feature #2 Title</text>
  <rect x="440" y="380" width="180" height="10" rx="5" fill="#2B2B2B" fill-opacity="0.1" />
  <rect x="440" y="402" width="220" height="10" rx="5" fill="#2B2B2B" fill-opacity="0.08" />
  <text x="440" y="396" font-family="Inter, Arial, sans-serif" font-size="12" fill="#2B2B2B" fill-opacity="0.6">Short benefit statement.</text>
  <rect x="720" y="352" width="120" height="12" rx="6" fill="#E8A9B8" fill-opacity="0.8" />
  <text x="720" y="372" font-family="Inter, Arial, sans-serif" font-size="14" font-weight="600" fill="#2B2B2B">Feature #3 Title</text>
  <rect x="720" y="380" width="180" height="10" rx="5" fill="#2B2B2B" fill-opacity="0.1" />
  <rect x="720" y="402" width="220" height="10" rx="5" fill="#2B2B2B" fill-opacity="0.08" />
  <text x="720" y="396" font-family="Inter, Arial, sans-serif" font-size="12" fill="#2B2B2B" fill-opacity="0.6">Short benefit statement.</text>
  <rect x="120" y="470" width="960" height="200" rx="26" fill="#FFFFFF" stroke="#D8B878" stroke-opacity="0.3" stroke-width="2" />
  <rect x="160" y="506" width="360" height="24" rx="12" fill="#E8A9B8" fill-opacity="0.3" />
  <text x="180" y="524" font-family="Inter, Arial, sans-serif" font-size="18" font-weight="600" fill="#2B2B2B">Section Title</text>
  <rect x="160" y="546" width="520" height="16" rx="8" fill="#2B2B2B" fill-opacity="0.08" />
  <rect x="160" y="572" width="480" height="16" rx="8" fill="#2B2B2B" fill-opacity="0.08" />
  <rect x="160" y="598" width="420" height="16" rx="8" fill="#2B2B2B" fill-opacity="0.08" />
  <text x="180" y="569" font-family="Inter, Arial, sans-serif" font-size="14" fill="#2B2B2B" fill-opacity="0.65">Use this space for persuasive paragraph copy describing the offer.</text>
  <text x="180" y="595" font-family="Inter, Arial, sans-serif" font-size="14" fill="#2B2B2B" fill-opacity="0.65">Include social proof, key outcomes, or timeline details.</text>
  <text x="180" y="621" font-family="Inter, Arial, sans-serif" font-size="14" fill="#2B2B2B" fill-opacity="0.65">Wrap with a reminder of the benefit before the CTA.</text>
  <rect x="780" y="566" width="200" height="56" rx="16" fill="#E8A9B8" fill-opacity="0.85" />
  <text x="820" y="600" font-family="Inter, Arial, sans-serif" font-size="18" font-weight="600" fill="#FFFFFF">Book Now</text>
  <rect x="160" y="640" width="200" height="12" rx="6" fill="#2B2B2B" fill-opacity="0.1" />
  <text x="160" y="655" font-family="Inter, Arial, sans-serif" font-size="13" font-weight="600" fill="#2B2B2B">Service Highlights</text>
  <rect x="160" y="664" width="180" height="10" rx="5" fill="#2B2B2B" fill-opacity="0.08" />
  <text x="160" y="676" font-family="Inter, Arial, sans-serif" font-size="12" fill="#2B2B2B" fill-opacity="0.6">• Key bullet one</text>
  <rect x="160" y="686" width="240" height="10" rx="5" fill="#2B2B2B" fill-opacity="0.08" />
  <text x="160" y="698" font-family="Inter, Arial, sans-serif" font-size="12" fill="#2B2B2B" fill-opacity="0.6">• Key bullet two</text>
  <rect x="420" y="640" width="200" height="12" rx="6" fill="#2B2B2B" fill-opacity="0.1" />
  <text x="420" y="655" font-family="Inter, Arial, sans-serif" font-size="13" font-weight="600" fill="#2B2B2B">Support Details</text>
  <rect x="420" y="664" width="180" height="10" rx="5" fill="#2B2B2B" fill-opacity="0.08" />
  <text x="420" y="676" font-family="Inter, Arial, sans-serif" font-size="12" fill="#2B2B2B" fill-opacity="0.6">• Response time promise</text>
  <rect x="420" y="686" width="240" height="10" rx="5" fill="#2B2B2B" fill-opacity="0.08" />
  <text x="420" y="698" font-family="Inter, Arial, sans-serif" font-size="12" fill="#2B2B2B" fill-opacity="0.6">• What happens after booking</text>
</svg>

